# Blender v2.82 (sub 7) OBJ File: ''
# www.blender.org
o Cube
v -0.121047 -0.120761 -0.905821
v -0.121594 -0.120481 1.522909
v 0.124614 -0.120761 -0.905766
v 0.124067 -0.120481 1.522964
v -0.121047 0.124900 -0.905849
v -0.121594 0.125180 1.522881
v 0.124614 0.124900 -0.905794
v 0.124067 0.125180 1.522936
v -0.023507 -0.023373 -1.544039
v 0.027361 -0.023373 -1.544027
v -0.023507 0.027495 -1.544042
v 0.027361 0.027495 -1.544031
v 0.317818 -0.313970 -0.922904
v 0.317818 0.318092 -0.922943
v -0.314244 -0.313970 -0.923046
v -0.314244 0.318092 -0.923085
vn 0.0883 0.0001 0.9961
vn 1.0000 -0.0000 0.0002
vn 0.0000 1.0000 -0.0001
vn -0.0002 0.0001 1.0000
vn -0.0000 -1.0000 0.0001
vn -1.0000 0.0000 -0.0002
vn 0.0002 -0.0001 -1.0000
vn -0.0002 0.0886 0.9961
vn -0.0002 -0.0886 0.9961
vn -0.0889 0.0001 0.9960
vn 0.9058 -0.0000 -0.4236
vn 0.0001 -0.9058 -0.4238
vn 0.0001 0.9057 -0.4238
vn -0.9057 -0.0000 -0.4240
vn 0.0884 0.0001 0.9961
vn -0.0887 0.0001 0.9961
s off
f 3//1 14//1 7//1
f 3//2 8//2 4//2
f 7//3 6//3 8//3
f 2//4 8//4 6//4
f 1//5 4//5 2//5
f 5//6 2//6 6//6
f 11//7 10//7 9//7
f 7//8 16//8 5//8
f 1//9 13//9 3//9
f 1//10 16//10 15//10
f 10//11 14//11 13//11
f 10//12 15//12 9//12
f 11//13 14//13 12//13
f 9//14 16//14 11//14
f 3//15 13//15 14//15
f 3//2 7//2 8//2
f 7//3 5//3 6//3
f 2//4 4//4 8//4
f 1//5 3//5 4//5
f 5//6 1//6 2//6
f 11//7 12//7 10//7
f 7//8 14//8 16//8
f 1//9 15//9 13//9
f 1//16 5//16 16//16
f 10//11 12//11 14//11
f 10//12 13//12 15//12
f 11//13 16//13 14//13
f 9//14 15//14 16//14
